<svg id="Layer_1" data-name="Layer 1" xmlns="http://www.w3.org/2000/svg" viewBox="0 0 2000 2000"><defs><style>.cls-1{fill:#dadada;}.cls-2{fill:#b2b2b2;}</style></defs><path class="cls-1" d="M1004.77,1286.65c-48.14-29.4,209.38-266.47,51.57-258.93C1007.66,1030,964,1067.34,938.87,1127c-67.31,159.67,157.14,408,378.56,325.34,148.28-55.37,200.64-245.85,197.14-368.4-4.75-166.57-111.28-357.57-305.19-412.75-235.43-67-419.06,117.6-434.81,134-104,108.2-170.19,283.27-115.21,446,61,180.64,237.45,337.48,325.3,280.72,77.55-50.11-73.7-116.51-160.86-322.94-52.54-124.43-5.95-232.81,67-296.41,190-165.56,392.86,2.36,406.42,114.13C1322.59,1235.39,1057.49,1318.84,1004.77,1286.65Z"/><ellipse class="cls-2" cx="939.04" cy="482.13" rx="99.15" ry="137.74" transform="translate(-82.6 216.63) rotate(-12.61)"/><ellipse class="cls-2" cx="1222.06" cy="485.92" rx="126.06" ry="90.74" transform="translate(609.56 1649.7) rotate(-83.93)"/><ellipse class="cls-2" cx="697.12" cy="604.11" rx="99.15" ry="137.74" transform="translate(-220.09 505.87) rotate(-34.8)"/><ellipse class="cls-2" cx="552.16" cy="840.46" rx="90.74" ry="126.06" transform="translate(-451.79 898.41) rotate(-60)"/></svg>